Coordinates
version=1
nRows=11
nColumns=63
inDegrees=yes

Units are S.I. units (second, meters, Newtons, ...)
If the header above contains a line with 'inDegrees', this indicates whether rotational values are in degrees (yes) or radians (no).

endheader
time	pelvis_tilt	pelvis_list	pelvis_rotation	pelvis_tx	pelvis_ty	pelvis_tz	hip_flexion_r	hip_adduction_r	hip_rotation_r	knee_angle_r	knee_angle_r_beta	ankle_angle_r	subtalar_angle_r	mtp_angle_r	hip_flexion_l	hip_adduction_l	hip_rotation_l	knee_angle_l	knee_angle_l_beta	ankle_angle_l	subtalar_angle_l	mtp_angle_l	L5_S1_Flex_Ext	L5_S1_Lat_Bending	L5_S1_axial_rotation	L4_L5_Flex_Ext	L4_L5_Lat_Bending	L4_L5_axial_rotation	L3_L4_Flex_Ext	L3_L4_Lat_Bending	L3_L4_axial_rotation	L2_L3_Flex_Ext	L2_L3_Lat_Bending	L2_L3_axial_rotation	L1_L2_Flex_Ext	L1_L2_Lat_Bending	L1_L2_axial_rotation	L1_T12_Flex_Ext	L1_T12_Lat_Bending	L1_T12_axial_rotation	Abs_r3	Abs_r2	Abs_r1	Abs_t1	Abs_t2	neck_flexion	neck_bending	neck_rotation	arm_flex_r	arm_add_r	arm_rot_r	elbow_flex_r	pro_sup_r	wrist_flex_r	wrist_dev_r	arm_flex_l	arm_add_l	arm_rot_l	elbow_flex_l	pro_sup_l	wrist_flex_l	wrist_dev_l
4.833333	0.628091	-7.106441	84.409532	0.217674	0.761240	0.733098	4.327532	-1.909519	-5.728630	8.624499	0.150526	34.086591	17.029398	0.000000	4.343305	2.102675	-2.531098	6.326257	0.110414	34.698051	-9.196671	0.000000	0.059785	-0.116988	3.082967	0.111026	-0.155594	3.275652	0.098220	-0.284445	3.275652	0.068328	-0.284445	2.697596	0.055516	-0.238563	2.504911	0.034161	-0.181215	2.312225	0.427036	-1.323395	17.146536	0.000000	0.000000	27.751089	-0.003309	1.380131	3.056435	-12.399485	4.946018	31.643406	86.362992	-8.148681	10.468922	20.926556	-9.618498	109.922671	27.430408	44.994701	-29.869081	-6.188152
4.850000	0.615455	-6.944142	84.133559	0.218094	0.761336	0.732578	4.179324	-1.926310	-5.459296	8.677904	0.151458	34.112372	17.072526	0.000000	4.103274	2.110354	-2.682585	6.256420	0.109195	34.754401	-9.280016	0.000000	0.049049	-0.119672	3.136238	0.091089	-0.159164	3.332253	0.080583	-0.290970	3.332253	0.056058	-0.290970	2.744208	0.045547	-0.244035	2.548193	0.028027	-0.185372	2.352179	0.350353	-1.353753	17.442815	0.000000	0.000000	27.680153	-0.029777	1.179923	2.830882	-12.256086	4.856343	31.593221	86.330119	-7.934100	10.483240	20.727074	-9.745153	109.020170	27.396756	45.667220	-29.116208	-6.062853
4.866667	0.628905	-6.781443	83.889432	0.218495	0.761408	0.731961	3.993822	-1.913607	-5.201669	8.680458	0.151503	34.128182	17.101397	0.000000	3.855916	2.089585	-2.924786	6.225910	0.108663	34.820804	-9.241905	0.000000	0.040326	-0.119092	3.182780	0.074890	-0.158393	3.381704	0.066252	-0.289561	3.381704	0.046089	-0.289561	2.784933	0.037447	-0.242853	2.586009	0.023042	-0.184474	2.387085	0.288046	-1.347194	17.701670	0.000000	0.000000	27.612958	-0.062273	1.004896	2.590924	-12.075475	4.650460	31.555637	86.284958	-7.656267	10.579157	20.587496	-9.830293	108.553741	27.392548	46.141256	-28.419175	-5.910940
4.883333	0.678593	-6.620641	83.688539	0.218858	0.761463	0.731253	3.764289	-1.860323	-4.936346	8.623145	0.150502	34.118860	17.072826	0.000000	3.599003	2.026179	-3.360006	6.228537	0.108708	34.924507	-8.923025	0.000000	0.033488	-0.113938	3.220497	0.062190	-0.151538	3.421778	0.055017	-0.277030	3.421778	0.038273	-0.277030	2.817935	0.031097	-0.232343	2.616654	0.019135	-0.176491	2.415373	0.239199	-1.288894	17.911438	0.000000	0.000000	27.553829	-0.101844	0.877551	2.353709	-11.897333	4.489065	31.526283	86.097213	-7.393273	10.719166	20.573272	-9.821929	108.999870	27.365571	45.971357	-27.894246	-5.874392
4.900000	0.745086	-6.472238	83.557034	0.219155	0.761474	0.730444	3.494710	-1.786550	-4.710460	8.497130	0.148303	34.088683	17.013219	0.000000	3.340197	1.961037	-3.659470	6.243112	0.108963	34.973055	-8.727392	0.000000	0.029156	-0.106459	3.237693	0.054145	-0.141591	3.440049	0.047900	-0.258846	3.440049	0.033322	-0.258846	2.832981	0.027074	-0.217092	2.630626	0.016660	-0.164906	2.428270	0.208257	-1.204291	18.007077	0.000000	0.000000	27.508991	-0.111168	0.851210	2.136142	-11.696446	4.308258	31.519861	85.888085	-7.103774	10.949641	20.542659	-9.823724	109.519718	27.381192	46.119067	-27.470870	-5.652458
4.916667	0.825876	-6.345640	83.468247	0.219415	0.761433	0.729565	3.209092	-1.696658	-4.546190	8.322761	0.145260	34.046455	16.985286	0.000000	3.095461	1.884077	-3.976266	6.274511	0.109511	35.024190	-8.466426	0.000000	0.027287	-0.096575	3.235703	0.050675	-0.128445	3.437935	0.044830	-0.234813	3.437935	0.031186	-0.234813	2.831240	0.025339	-0.196936	2.629009	0.015592	-0.149595	2.426778	0.194908	-1.092476	17.996011	0.000000	0.000000	27.479654	-0.070653	0.975547	1.947009	-11.484423	4.139244	31.555233	85.761725	-6.808177	11.218353	20.454585	-9.844206	110.006848	27.415044	46.567553	-27.272237	-5.350457
4.933333	0.903962	-6.243623	83.430731	0.219647	0.761352	0.728657	2.890978	-1.599909	-4.346635	8.055716	0.140599	33.954372	16.866212	0.000000	2.879420	1.812424	-4.262787	6.325685	0.110404	35.061816	-8.204079	0.000000	0.026824	-0.086673	3.211515	0.049815	-0.115276	3.412235	0.044069	-0.210738	3.412235	0.030657	-0.210738	2.810076	0.024909	-0.176744	2.609356	0.015327	-0.134257	2.408637	0.191602	-0.980466	17.861485	0.000000	0.000000	27.464530	0.030193	1.232114	1.815088	-11.291124	4.160314	31.619263	85.492597	-6.570505	11.490033	20.294358	-9.916906	110.234628	27.470740	47.530354	-27.239903	-4.866002
4.950000	0.977154	-6.173344	83.417348	0.219885	0.761228	0.727779	2.575812	-1.499323	-4.135009	7.736169	0.135022	33.838041	16.716965	0.000000	2.712291	1.732632	-4.672406	6.408417	0.111848	35.144291	-7.756581	0.000000	0.027138	-0.076756	3.172444	0.050398	-0.102085	3.370722	0.044585	-0.186624	3.370722	0.031016	-0.186624	2.775888	0.025200	-0.156520	2.577611	0.015507	-0.118895	2.379333	0.193844	-0.868276	17.644181	0.000000	0.000000	27.462728	0.171289	1.603834	1.724616	-11.121923	4.324384	31.738455	85.263151	-6.361257	11.726515	20.063325	-10.038574	110.147343	27.563905	48.922194	-27.322129	-4.269024
4.966667	1.037864	-6.150584	83.435602	0.220101	0.761051	0.726976	2.292829	-1.405242	-3.953354	7.381364	0.128829	33.706090	16.575806	0.000000	2.618088	1.662253	-5.032246	6.519456	0.113786	35.218053	-7.356585	0.000000	0.029369	-0.067398	3.123584	0.054542	-0.089639	3.318808	0.048251	-0.163870	3.318808	0.033566	-0.163870	2.733136	0.027272	-0.137437	2.537912	0.016782	-0.104399	2.342688	0.209783	-0.762414	17.372436	0.000000	0.000000	27.472800	0.319274	2.044129	1.641545	-10.970251	4.534128	31.930786	85.093403	-6.160014	11.898359	19.834930	-10.176488	110.005441	27.669592	50.318348	-27.377436	-3.695737
4.983333	1.086742	-6.164458	83.483853	0.220312	0.760841	0.726263	2.036409	-1.316262	-3.769542	6.996939	0.122120	33.564216	16.407550	0.000000	2.586398	1.599800	-5.323845	6.654218	0.116138	35.276433	-7.029811	0.000000	0.030342	-0.058723	3.061578	0.056349	-0.078101	3.252927	0.049850	-0.142779	3.252927	0.034678	-0.142779	2.678881	0.028176	-0.119748	2.487532	0.017338	-0.090962	2.296184	0.216733	-0.664284	17.027580	0.000000	0.000000	27.495131	0.501647	2.586589	1.580098	-10.832486	4.811847	32.183574	84.985593	-5.977065	12.035841	19.489457	-10.405558	109.098322	27.802780	52.498042	-27.456561	-2.923442
5.000000	1.128100	-6.221285	83.540078	0.220521	0.760602	0.725682	1.833651	-1.228194	-3.592042	6.609244	0.115353	33.417975	16.235157	0.000000	2.614089	1.542724	-5.515863	6.784299	0.118408	35.292566	-6.839872	0.000000	0.031243	-0.050365	3.002136	0.058022	-0.066986	3.189770	0.051330	-0.122458	3.189770	0.035708	-0.122458	2.626869	0.029013	-0.102705	2.439236	0.017853	-0.078016	2.251602	0.223169	-0.569742	16.696982	0.000000	0.000000	27.528406	0.650361	3.123427	1.509605	-10.738689	5.224163	32.476396	84.847048	-5.846811	12.059472	19.239489	-10.592964	108.487844	27.949077	54.334051	-27.507452	-2.162524
